<svg xmlns="http://www.w3.org/2000/svg" viewBox="0 0 200 200"><defs><linearGradient id="g" x1="0" y1="0" x2="0" y2="1"><stop offset="0" stop-color="#1b2260"/><stop offset="1" stop-color="#0a0e27"/></linearGradient><radialGradient id="h" cx="50%" cy="50%" r="50%"><stop offset="0" stop-color="#ffd166" stop-opacity=".28"/><stop offset="1" stop-color="#ffd166" stop-opacity="0"/></radialGradient></defs><rect width="200" height="200" fill="url(#g)"/><circle cx="100" cy="100" r="85" fill="url(#h)"/><g fill="#fff3c4"><circle cx="24" cy="30" r="2.5"/><circle cx="178" cy="36" r="2"/><circle cx="174" cy="172" r="2.5"/><circle cx="22" cy="166" r="2"/></g><g transform="translate(100 100) scale(1.0) translate(-100 -100)"><path d="M92.6,37.9 Q100.0,20.0 107.4,37.9 L116.1,59.2 Q123.0,76.0 141.0,76.0 L163.8,76.0 Q183.0,76.0 167.6,87.5 L149.4,101.2 Q135.0,112.0 140.4,129.4 L147.2,151.4 Q153.0,170.0 136.0,158.8 L115.9,145.5 Q100.0,135.0 84.1,145.5 L64.0,158.8 Q47.0,170.0 52.8,151.4 L59.6,129.4 Q65.0,112.0 50.6,101.2 L32.4,87.5 Q17.0,76.0 36.2,76.0 L59.0,76.0 Q77.0,76.0 83.9,59.2 Z" fill="#ffd166" stroke="#f4a637" stroke-width="4" stroke-linejoin="round"/><ellipse cx="82" cy="98" rx="6" ry="6" fill="#2c2410"/><ellipse cx="118" cy="98" rx="6" ry="6" fill="#2c2410"/><circle cx="84" cy="96" r="2" fill="#fff8e8"/><circle cx="120" cy="96" r="2" fill="#fff8e8"/><path d="M85 115 Q100 128 115 115" fill="none" stroke="#2c2410" stroke-width="4" stroke-linecap="round"/></g></svg>